<svg version="1.0" xmlns="http://www.w3.org/2000/svg"
 width="200" height="200" viewBox="0 0 1000.000000 1000.000000"
 preserveAspectRatio="xMidYMid meet">

<g transform="translate(0.000000,1024.000000) scale(0.100000,-0.100000)"
fill="#ffffff" stroke="none">
<path d="M3468 6461 c-139 -45 -247 -151 -299 -297 -18 -49 -22 -89 -27 -243
l-5 -184 -32 -29 c-47 -41 -93 -116 -122 -199 -60 -173 -16 -373 111 -511 l44
-48 4 -167 c4 -137 9 -179 26 -226 50 -137 147 -236 284 -289 50 -19 73 -20
376 -19 l322 2 0 -100 0 -101 -244 0 c-212 0 -252 -3 -305 -19 -82 -25 -152
-72 -212 -142 l-51 -58 -42 52 c-23 29 -100 126 -172 217 l-131 165 -6 70
c-15 158 -130 288 -278 313 -47 8 -30 -11 -491 563 l-60 76 -277 153 c-152 84
-330 184 -396 221 -67 38 -126 69 -133 69 -7 0 -12 -10 -12 -22 0 -26 58 -302
132 -631 l52 -229 134 -161 c74 -89 160 -191 191 -227 46 -52 139 -168 182
-225 10 -14 -44 -191 -96 -313 -69 -164 -46 -392 56 -549 42 -64 135 -157 175
-175 17 -8 26 -28 39 -82 44 -184 199 -374 395 -484 71 -40 227 -92 276 -92
27 0 54 -10 84 -30 76 -51 141 -70 235 -70 l85 0 0 -198 c0 -169 3 -207 19
-254 49 -142 159 -244 306 -283 47 -12 122 -15 356 -15 l297 0 12 -82 c45
-313 280 -600 544 -668 263 -67 522 22 697 241 94 116 189 352 189 472 l0 37
144 0 144 0 51 -34 c194 -131 468 -95 703 92 149 119 241 282 267 475 5 34 19
100 31 146 19 72 22 102 18 200 -6 146 -32 218 -123 337 -11 16 -52 -17 425
338 687 511 1052 790 1076 821 52 69 69 124 69 225 0 124 -17 159 -170 355
-143 184 -155 196 -209 223 -80 41 -168 56 -242 44 -85 -14 -128 -36 -251
-130 -56 -42 -215 -163 -355 -268 -250 -190 -433 -328 -784 -595 l-181 -138
-24 52 c-32 68 -111 147 -182 182 -49 23 -75 29 -158 33 l-100 5 3 96 3 96
385 5 c373 5 387 6 439 28 111 47 188 119 242 224 42 83 59 167 59 293 l0 110
47 25 c104 55 197 180 223 302 l13 56 65 13 c132 25 263 114 327 223 46 79 66
152 72 266 3 58 12 117 19 132 18 35 18 92 -1 128 -25 48 -62 70 -118 70 -44
0 -53 -4 -88 -39 -34 -34 -39 -44 -39 -85 0 -50 10 -78 43 -113 18 -20 19 -31
14 -98 -12 -157 -98 -270 -239 -312 -28 -8 -51 -13 -52 -11 -1 2 -7 26 -14 53
-31 127 -112 237 -216 296 l-56 31 0 102 c0 222 -76 378 -229 470 -117 71 2
66 -1695 65 -1449 0 -1534 -1 -1588 -18z m2538 -168 c56 -30 109 -94 135 -162
20 -55 21 -73 22 -761 l2 -705 -27 -56 c-32 -69 -88 -127 -154 -160 l-49 -24
-1203 -3 -1202 -2 -43 21 c-89 45 -147 121 -163 214 -5 28 -9 361 -9 740 l0
690 33 67 c37 76 83 119 157 148 49 19 85 19 1255 17 l1205 -2 41 -22z m617
-7 c93 -45 161 -129 182 -223 6 -32 5 -33 -23 -33 -17 0 -39 -3 -49 -6 -15 -5
-16 -4 -3 5 9 7 11 14 5 19 -5 4 -10 14 -10 22 0 8 -5 14 -12 13 -7 -2 -10 3
-7 11 8 21 -63 96 -83 89 -11 -4 -14 -2 -9 5 8 14 -30 36 -46 26 -6 -4 -8 -3
-5 3 9 14 -49 25 -122 22 l-58 -2 9 -41 c5 -23 10 -48 11 -56 1 -8 10 -22 19
-30 11 -9 19 -34 22 -62 4 -44 2 -47 -23 -56 -33 -12 -81 -4 -81 12 -3 105
-50 249 -94 285 -35 29 -15 33 152 30 160 -4 169 -5 225 -33z m40 -153 c-4
-10 -2 -14 4 -10 6 4 17 -1 24 -11 11 -14 11 -15 -1 -4 -12 10 -17 8 -28 -10
l-13 -23 7 24 c4 17 3 21 -6 16 -9 -6 -9 -3 -1 12 6 11 7 24 3 28 -4 5 -2 5 5
1 7 -4 9 -14 6 -23z m7 -307 c0 -2 -7 -7 -16 -10 -8 -3 -12 -2 -9 4 6 10 25
14 25 6z m-116 -91 c-14 -19 -29 -35 -31 -35 -5 0 7 18 36 53 26 31 23 18 -5
-18z m400 -59 c23 -13 49 -33 59 -44 18 -19 17 -20 -27 -15 -62 7 -145 -31
-180 -84 -61 -93 -74 -218 -32 -309 27 -59 95 -121 143 -130 45 -8 34 -20 -31
-34 -76 -16 -126 0 -186 56 -74 69 -94 125 -95 260 0 107 1 113 35 179 72 140
198 189 314 121z m-5307 -228 c198 -115 349 -198 362 -198 10 0 12 -9 7 -37
-3 -21 -6 -50 -6 -64 0 -25 -2 -26 -76 -32 -42 -3 -78 -8 -80 -10 -3 -3 -8
-33 -12 -68 l-7 -64 -115 -6 c-63 -3 -115 -5 -116 -5 0 1 -19 78 -41 171 -44
185 -45 175 17 189 14 3 32 10 40 15 16 11 8 32 -46 119 -14 23 -24 42 -21 42
3 0 45 -23 94 -52z m1493 -162 c-15 -15 -17 74 -2 144 5 27 8 17 10 -49 2 -49
-1 -88 -8 -95z m-912 -336 c70 -87 307 -372 356 -429 l21 -24 -37 6 c-35 5
-127 -4 -174 -18 -23 -7 -58 32 -419 475 -7 8 -16 25 -19 37 -7 21 -4 22 66
25 l73 3 3 34 3 33 26 -23 c14 -13 59 -67 101 -119z m5789 -211 c39 -14 101
-78 193 -200 105 -137 129 -185 130 -252 0 -91 -25 -123 -209 -262 l-103 -79
-21 29 c-12 16 -102 130 -202 255 -250 314 -240 299 -222 313 138 112 259 196
295 207 28 9 102 3 139 -11z m-1246 -146 c-12 -20 -14 -14 -5 12 4 9 9 14 11
11 3 -2 0 -13 -6 -23z m-21 -32 c0 -5 -9 -19 -20 -32 l-20 -24 17 32 c19 34
23 39 23 24z m-55 -61 c-3 -5 -20 -19 -38 -30 -32 -22 -32 -22 3 9 37 32 45
37 35 21z m885 -196 c63 -80 130 -164 148 -186 17 -22 29 -45 25 -50 -3 -6 -2
-8 4 -5 5 3 21 -8 34 -26 23 -31 25 -35 28 -58 0 -5 5 -8 10 -5 5 3 17 -6 26
-20 11 -17 12 -24 4 -18 -25 15 -41 13 -35 -4 5 -13 2 -12 -9 2 -15 20 -15 20
-15 0 0 -15 -2 -16 -9 -4 -12 18 -3 33 15 26 16 -6 18 3 4 24 -8 13 -11 12
-22 -3 -13 -18 -14 -17 -32 2 -11 12 -16 21 -12 21 4 0 -7 12 -24 26 -18 16
-29 33 -26 41 3 8 2 12 -3 9 -13 -8 -281 310 -281 333 0 10 39 42 50 40 3 0
57 -66 120 -145z m-4949 16 c15 -7 32 -23 38 -37 14 -30 14 -34 -1 -30 -7 1
-12 -4 -10 -11 1 -8 -2 -11 -8 -7 -8 5 -7 12 2 22 12 14 5 15 -63 10 -75 -6
-204 -46 -204 -63 0 -19 -18 -35 -32 -30 -18 7 -45 -12 -37 -25 3 -5 0 -8 -7
-7 -6 2 -14 -3 -17 -11 -3 -9 0 -11 8 -6 9 5 11 4 6 -4 -4 -6 -11 -9 -16 -6
-13 8 -62 -73 -54 -87 5 -7 3 -8 -6 -3 -10 6 -12 4 -7 -8 3 -9 2 -17 -3 -19
-6 -2 -13 -40 -16 -85 -5 -70 -4 -87 11 -110 l18 -28 -21 18 c-40 36 -64 113
-60 191 8 157 107 279 273 339 56 20 161 18 206 -3z m4706 -36 c21 -26 65 -79
99 -118 33 -39 86 -105 116 -146 31 -41 79 -102 107 -135 28 -33 49 -65 46
-72 -2 -7 1 -15 7 -19 7 -5 8 -2 4 7 -4 8 4 1 19 -15 20 -22 23 -31 14 -42 -6
-8 -17 -14 -23 -13 -25 3 -37 -2 -30 -12 5 -8 9 -8 14 1 5 8 10 8 14 2 10 -16
-21 -22 -34 -6 -7 8 -9 14 -4 14 5 0 4 4 -2 8 -15 10 -172 200 -184 223 -14
25 -21 24 -60 -11 l-33 -30 48 -62 c27 -35 61 -79 75 -98 14 -19 41 -55 60
-79 l33 -44 -22 -19 c-13 -10 -26 -18 -30 -17 -3 0 -44 52 -91 116 -47 63 -95
120 -107 125 -12 6 -20 15 -17 19 3 5 -5 8 -17 6 -26 -4 -31 2 -169 177 l-94
119 34 28 c19 15 67 52 105 83 39 31 73 56 77 56 4 0 24 -21 45 -46z m-2887
-59 c0 -8 -4 -15 -10 -15 -5 0 -10 5 -10 10 0 6 -5 10 -11 10 -15 0 -6 -73 10
-78 9 -3 11 0 5 9 -6 11 -5 12 7 3 17 -14 70 -15 86 -2 17 14 28 -10 28 -64 0
-57 0 -57 -129 -50 l-96 5 0 93 0 94 60 0 c47 0 60 -3 60 -15z m27 -7 c-3 -8
-6 -5 -6 6 -1 11 2 17 5 13 3 -3 4 -12 1 -19z m33 12 c0 -5 -4 -10 -10 -10 -5
0 -10 5 -10 10 0 6 5 10 10 10 6 0 10 -4 10 -10z m-1372 -380 c156 -187 150
-173 143 -313 l-6 -118 -81 98 c-45 54 -143 172 -219 262 l-138 163 11 63 c7
34 12 90 12 124 l0 62 87 -108 c48 -59 134 -164 191 -233z m1372 320 c0 -5 -4
-10 -10 -10 -5 0 -10 5 -10 10 0 6 5 10 10 10 6 0 10 -4 10 -10z m228 -31 c-3
-8 -7 -3 -11 10 -4 17 -3 21 5 13 5 -5 8 -16 6 -23z m92 -26 c0 -2 -13 3 -30
12 -16 9 -30 20 -30 26 0 5 14 0 30 -13 17 -12 30 -23 30 -25z m2254 -176 c53
-64 96 -119 96 -121 0 -2 -48 -39 -107 -82 -60 -43 -194 -142 -299 -221 l-191
-143 -64 15 c-35 8 -87 15 -115 15 -69 0 -194 -33 -262 -70 -31 -16 -59 -30
-64 -30 -4 0 -8 24 -8 53 l0 52 143 107 c78 58 261 195 407 304 146 108 283
212 304 231 32 27 42 31 52 21 6 -7 55 -66 108 -131z m-2189 123 c4 -6 -27 -9
-87 -8 l-93 2 85 6 c47 3 86 7 87 8 1 1 5 -2 8 -8z m94 -6 c2 -2 -12 -4 -32
-4 -20 0 -37 4 -37 10 0 8 58 3 69 -6z m2918 -163 c9 -14 8 -18 -3 -18 -8 0
-12 3 -9 5 9 9 -17 32 -28 25 -6 -3 -7 -1 -3 5 9 14 28 7 43 -17z m-5297 0
c-14 -27 -27 -34 -36 -20 -4 8 -3 9 4 5 6 -3 16 3 22 14 6 11 13 20 16 20 2 0
0 -9 -6 -19z m5221 2 c13 -16 12 -17 -3 -4 -10 7 -18 15 -18 17 0 8 8 3 21
-13z m-2093 -29 c47 -19 87 -57 120 -114 l27 -45 2 -422 2 -423 -33 0 c-18 0
-61 -3 -95 -6 l-61 -7 0 351 0 352 -22 5 c-13 3 -474 4 -1026 3 -810 -2 -1004
-5 -1011 -16 -4 -7 -11 -342 -15 -744 -6 -596 -5 -733 6 -739 7 -5 346 -9 753
-9 736 0 740 0 775 -21 19 -12 53 -35 74 -52 22 -17 71 -48 110 -69 l71 -37
-874 -1 c-647 0 -884 3 -913 12 -50 15 -132 87 -161 142 l-22 41 0 800 c0 792
0 800 21 846 30 64 77 114 136 143 l52 26 1023 0 c903 0 1028 -2 1061 -16z
m329 -34 c3 3 17 -11 32 -30 l26 -35 -38 33 c-21 17 -41 32 -46 32 -4 0 -8 7
-8 16 0 14 2 14 14 -2 8 -11 16 -17 20 -14z m1818 21 c3 -5 2 -12 -3 -15 -5
-3 -9 1 -9 9 0 17 3 19 12 6z m-5650 -10 c3 -5 2 -12 -3 -15 -5 -3 -9 1 -9 9
0 17 3 19 12 6z m308 -19 c-40 -40 -49 -43 -64 -25 -12 16 -12 17 2 6 20 -16
32 -5 17 16 -10 13 -10 14 2 4 16 -15 34 -17 26 -4 -4 5 0 12 6 14 25 10 29 7
11 -11z m3531 -30 c3 -5 -1 -9 -9 -9 -8 0 -12 4 -9 9 3 4 7 8 9 8 2 0 6 -4 9
-8z m-3701 -49 c-7 -2 -19 -2 -25 0 -7 3 -2 5 12 5 14 0 19 -2 13 -5z m-289
-43 c14 -22 49 -58 77 -80 28 -22 46 -40 39 -40 -6 0 -8 -5 -4 -12 5 -7 7 -26
6 -43 -2 -16 4 -46 12 -66 8 -20 12 -39 9 -43 -4 -3 -1 -6 5 -6 7 0 11 -3 10
-7 -3 -14 25 -63 35 -63 6 0 8 -3 4 -6 -11 -11 -75 36 -117 86 -52 63 -89 155
-99 248 -4 39 -6 72 -5 72 1 0 13 -18 28 -40z m4016 -75 c0 -2 -7 -8 -15 -15
-12 -10 -15 -10 -15 2 0 8 7 15 15 15 8 0 15 -1 15 -2z m-2072 -364 l-3 -146
-127 -3 -128 -3 0 144 c0 79 3 147 7 151 4 4 63 6 130 5 l124 -1 -3 -147z
m392 112 c0 -21 -3 -89 -7 -150 l-6 -113 -130 0 -130 0 7 38 c3 20 6 88 6 150
l0 112 130 0 130 0 0 -37z m376 -55 c-3 -50 -6 -117 -6 -150 l0 -58 -130 0
-130 0 0 143 c0 79 3 147 7 150 3 4 65 7 136 7 l130 0 -7 -92z m408 -25 c-3
-65 -7 -133 -10 -150 l-5 -33 -118 0 -118 0 4 138 c3 75 6 143 8 150 3 9 37
12 124 12 l119 0 -4 -117z m-2382 0 c78 -133 80 -140 39 -177 -18 -17 -21 -15
-58 36 -22 29 -51 71 -65 93 l-25 39 26 43 c14 23 29 43 32 43 3 0 26 -35 51
-77z m-415 41 c-3 -3 -12 -4 -19 -1 -8 3 -5 6 6 6 11 1 17 -2 13 -5z m50 -10
c-3 -3 -12 -4 -19 -1 -8 3 -5 6 6 6 11 1 17 -2 13 -5z m3050 -28 c19 -3 34 0
37 7 2 7 5 -9 5 -35 l1 -48 -114 0 c-63 0 -117 4 -120 8 -3 5 -3 24 0 43 l6
35 76 -3 c43 -2 91 -5 109 -7z m1058 -100 c85 -39 146 -105 170 -185 7 -23 4
-22 -46 15 -29 21 -49 32 -45 24 5 -8 -1 -5 -14 8 -12 13 -29 21 -37 18 -8 -3
-11 -2 -8 4 7 11 -86 40 -128 40 -17 0 -59 -5 -94 -11 -50 -9 -63 -15 -63 -29
0 -11 -4 -21 -9 -24 -5 -4 -7 4 -3 16 3 14 1 19 -6 14 -6 -3 -13 -2 -17 4 -4
6 -17 4 -36 -5 -39 -20 -36 -9 9 41 39 43 94 80 140 94 40 13 130 2 187 -24z
m-3456 -113 c28 -31 49 -58 48 -60 -9 -8 -82 22 -109 46 -27 24 -29 30 -19 49
6 12 16 22 21 22 4 0 31 -26 59 -57z m-620 16 c6 -18 11 -39 11 -48 0 -23 66
-159 97 -200 24 -31 24 -32 4 -21 -46 24 -158 140 -193 201 -53 89 -51 99 16
99 52 0 55 -1 65 -31z m3891 -29 c0 -5 -5 -10 -11 -10 -5 0 -7 5 -4 10 3 6 8
10 11 10 2 0 4 -4 4 -10z m-3390 -64 c0 -3 -4 -8 -10 -11 -5 -3 -10 -1 -10 4
0 6 5 11 10 11 6 0 10 -2 10 -4z m1036 -44 c-3 -5 -6 -70 -7 -145 l-1 -137
-135 0 -136 0 7 53 c3 28 6 94 6 145 l0 92 136 0 c74 0 133 -4 130 -8z m381
-59 c-4 -38 -7 -103 -7 -145 l0 -78 -131 0 -132 0 6 83 c4 45 7 110 7 145 l0
62 131 0 132 0 -6 -67z m379 21 c-3 -26 -6 -91 -6 -145 l0 -99 -130 0 -130 0
0 145 0 145 136 0 137 0 -7 -46z m749 36 c5 -8 -10 -9 -47 -4 -70 9 -74 14
-10 14 28 0 54 -5 57 -10z m-2579 -40 c0 -25 -4 -34 -9 -25 -6 12 0 65 8 65 1
0 2 -18 1 -40z m21 18 c-3 -8 -6 -5 -6 6 -1 11 2 17 5 13 3 -3 4 -12 1 -19z
m2063 -67 c2 -1 -1 -6 -8 -13 -7 -7 -12 -32 -12 -56 l0 -43 -37 3 -38 3 3 49
c1 28 7 53 12 56 8 5 61 5 80 1z m31 -24 c-10 -9 -11 -8 -5 6 3 10 9 15 12 12
3 -3 0 -11 -7 -18z m473 3 c71 -22 86 -35 65 -55 -12 -10 -29 -5 -97 31 -92
49 -80 58 32 24z m-2597 -42 c-2 -13 -4 -5 -4 17 -1 22 1 32 4 23 2 -10 2 -28
0 -40z m3799 9 c80 -41 144 -127 144 -194 0 -23 -2 -22 -41 16 -64 61 -155
102 -244 108 -49 4 -84 2 -105 -7 -17 -7 -48 -13 -69 -14 -37 -2 -38 -1 -35
29 1 16 3 33 3 37 1 9 54 37 91 49 14 5 66 7 115 6 74 -3 99 -8 141 -30z
m-1274 -119 l28 -19 -26 -39 -26 -39 -51 37 c-28 20 -48 31 -44 25 6 -9 3 -11
-7 -7 -9 3 -14 10 -11 14 3 4 -8 13 -24 18 -26 9 -29 8 -24 -5 5 -12 2 -15 -9
-11 -12 5 -18 -6 -26 -45 -14 -61 -10 -216 5 -225 6 -4 14 -23 18 -42 8 -39
58 -103 72 -92 4 4 5 3 0 -2 -4 -5 1 -18 10 -29 13 -14 6 -12 -24 8 -43 27
-108 104 -136 160 -23 47 -40 150 -34 206 7 61 46 149 81 184 l25 25 88 -51
c48 -29 100 -61 115 -71z m-2493 45 c15 -22 17 -31 8 -27 -8 3 -18 13 -21 22
-3 9 -9 24 -12 32 -8 19 -3 13 25 -27z m3601 -26 c11 -5 9 -6 -4 -4 -11 1 -21
9 -23 17 -3 10 -2 11 4 4 4 -6 15 -14 23 -17z m-115 -12 c-27 -7 -61 -17 -75
-21 -23 -7 -24 -6 -9 8 15 16 51 24 109 26 14 0 3 -6 -25 -13z m-488 -51 c49
-23 147 -118 141 -134 -2 -5 -35 -41 -73 -82 -44 -46 -71 -67 -71 -57 0 10 3
16 6 14 4 -2 14 5 23 15 9 11 12 22 7 25 -18 11 -10 35 10 35 11 0 20 -5 20
-11 0 -5 5 -7 11 -4 6 5 3 13 -10 22 -12 8 -21 19 -21 25 0 6 7 5 18 -3 14
-11 14 -10 -2 8 -10 13 -22 20 -26 18 -4 -2 -15 4 -25 15 -22 25 -41 25 -55 3
-10 -16 -10 -15 -5 4 5 19 1 23 -27 28 -61 11 -166 -14 -152 -37 4 -6 3 -8 -3
-5 -5 3 -20 -1 -32 -9 -18 -13 -20 -19 -10 -30 7 -9 8 -14 2 -12 -29 8 -76
-92 -57 -123 4 -8 3 -10 -5 -5 -9 6 -10 0 -4 -21 4 -15 7 -43 6 -61 -1 -18 3
-30 8 -27 5 4 9 33 9 66 0 32 4 59 9 59 4 0 6 -11 3 -25 -4 -21 -1 -24 14 -19
18 5 18 5 2 -6 -10 -6 -18 -22 -18 -35 0 -13 8 -29 18 -34 15 -9 15 -10 -5
-11 -25 0 -31 -24 -12 -50 9 -13 10 -12 5 3 -3 9 -1 17 4 17 6 0 10 -9 10 -20
0 -11 -4 -20 -10 -20 -5 0 -10 -5 -10 -12 0 -6 3 -9 6 -5 8 8 34 -18 34 -35 0
-19 35 -69 43 -61 4 3 -2 17 -14 29 -12 12 -18 27 -14 33 9 16 25 3 25 -20 0
-11 4 -18 9 -15 12 8 8 -21 -6 -35 -7 -7 -19 -1 -40 18 -17 15 -39 33 -49 39
-24 14 -32 39 -10 31 11 -4 15 -3 11 4 -4 6 -13 8 -21 5 -19 -7 -37 36 -20 46
7 5 5 8 -6 8 -22 0 -36 27 -49 94 -28 155 64 341 190 381 63 20 152 12 218
-21z m731 -151 c55 -26 91 -65 116 -125 l16 -36 -98 -52 c-53 -29 -122 -74
-153 -100 -31 -27 -71 -57 -89 -67 -19 -11 -42 -36 -53 -56 -10 -21 -28 -42
-38 -47 -49 -27 -109 -192 -89 -245 l11 -28 -59 5 c-129 12 -205 96 -219 240
-12 129 47 269 161 383 148 148 344 199 494 128z m-1434 -42 c-2 -2 -4 2 -5
10 0 9 -4 6 -10 -6 -8 -17 -9 -17 -4 5 2 14 5 34 6 45 1 11 5 4 9 -15 5 -19 7
-37 4 -39z m-1264 14 l0 -45 -82 -1 c-46 0 -92 -4 -103 -8 -17 -7 -17 -8 8
-15 26 -6 27 -8 12 -29 -8 -12 -16 -31 -17 -42 0 -11 -4 0 -8 25 l-7 45 -1
-57 c-2 -67 13 -86 23 -29 4 22 13 42 20 45 23 8 29 -14 9 -30 -18 -14 -17
-15 11 -11 17 2 24 2 18 0 -7 -3 -13 -9 -13 -14 0 -5 -9 -9 -20 -9 -15 0 -20
-7 -20 -29 0 -16 -6 -32 -12 -35 -7 -3 9 -4 36 -2 27 2 52 9 55 15 4 6 18 10
31 9 21 -3 25 2 31 35 7 44 -7 60 -21 23 -11 -31 -16 -32 -30 -6 -9 16 -8 18
5 14 11 -5 15 1 15 20 0 29 -9 33 -29 14 -10 -11 -12 -9 -9 7 4 24 38 27 55 5
10 -13 13 -11 22 10 8 20 10 10 10 -53 1 -64 -2 -79 -16 -84 -15 -6 -15 -7 3
-14 10 -4 -44 -8 -120 -8 l-139 -1 6 68 c4 37 7 104 7 150 l0 82 135 0 135 0
0 -45z m380 2 c0 -24 -3 -92 -7 -150 l-6 -107 -124 0 -123 0 0 150 0 150 130
0 130 0 0 -43z m372 -94 c-1 -76 -5 -144 -7 -150 -3 -10 -38 -13 -128 -13
l-124 0 2 30 c1 17 2 84 3 150 l2 120 128 0 127 0 -3 -137z m253 80 c8 -69 37
-148 70 -198 14 -20 25 -38 25 -40 0 -3 -41 -5 -92 -5 l-91 0 6 113 c4 61 7
129 7 150 0 35 1 37 34 37 34 0 34 0 41 -57z m993 43 c-10 -7 -15 -16 -11 -20
4 -4 -1 -4 -11 0 -13 5 -17 4 -12 -4 5 -8 1 -10 -10 -5 -13 5 -10 10 17 24 40
21 51 23 27 5z m-323 -76 c3 -5 -1 -10 -10 -10 -9 0 -13 5 -10 10 3 6 8 10 10
10 2 0 7 -4 10 -10z m-1812 -17 c-7 -2 -19 -2 -25 0 -7 3 -2 5 12 5 14 0 19
-2 13 -5z m120 0 c-7 -2 -21 -2 -30 0 -10 3 -4 5 12 5 17 0 24 -2 18 -5z
m1940 -53 c3 -11 1 -18 -4 -14 -5 3 -9 12 -9 20 0 20 7 17 13 -6z m31 -6 c3
-8 2 -12 -4 -9 -6 3 -10 10 -10 16 0 14 7 11 14 -7z m-24 -35 c0 8 2 12 5 9 3
-3 2 -13 -1 -22 -5 -14 -9 -15 -15 -4 -7 10 -9 11 -9 0 0 -7 -4 -10 -10 -7 -6
4 -5 11 3 19 9 10 14 11 19 2 5 -7 8 -7 8 3z m-2036 -50 c-8 -14 -24 -10 -24
6 0 9 6 12 15 9 8 -4 12 -10 9 -15z m1997 -33 c5 3 9 2 9 -3 0 -4 -15 -15 -33
-24 l-32 -16 0 27 c0 25 2 27 23 19 13 -5 28 -7 33 -3z m-166 -26 c3 -5 1 -10
-4 -10 -6 0 -11 5 -11 10 0 6 2 10 4 10 3 0 8 -4 11 -10z m95 -24 c0 -3 -4 -8
-10 -11 -5 -3 -10 -1 -10 4 0 6 5 11 10 11 6 0 10 -2 10 -4z m-51 -81 c0 -5
-4 -3 -9 5 -5 8 -9 22 -9 30 0 16 17 -16 18 -35z m-309 -589 c0 -2 -7 -7 -16
-10 -8 -3 -12 -2 -9 4 6 10 25 14 25 6z m-826 -272 c3 -8 2 -12 -4 -9 -6 3
-10 10 -10 16 0 14 7 11 14 -7z m47 -41 l24 -26 -27 19 c-15 10 -28 22 -28 27
0 12 5 8 31 -20z m526 -20 c-4 -3 -1 -13 5 -22 7 -9 8 -13 4 -9 -5 4 -16 2
-24 -5 -13 -10 -14 -9 -7 3 6 8 10 18 11 23 3 15 4 17 11 17 3 0 3 -3 0 -7z
m-447 -33 c8 -5 11 -10 5 -10 -5 0 -17 5 -25 10 -8 5 -10 10 -5 10 6 0 17 -5
25 -10z"/>
<path d="M3489 6139 c-15 -6 -40 -29 -55 -51 l-29 -41 0 -687 0 -686 25 -37
c13 -20 35 -41 48 -46 16 -8 408 -11 1240 -11 1343 0 1243 -5 1278 62 17 33
18 82 15 1096 l-1 344 -34 34 -34 34 -1213 -1 c-758 0 -1224 -4 -1240 -10z
m654 -296 c64 -20 148 -99 184 -171 23 -48 28 -70 28 -137 0 -67 -4 -89 -27
-135 -33 -68 -95 -132 -157 -162 -66 -33 -217 -33 -277 -1 -204 109 -252 354
-102 519 94 102 212 132 351 87z m1427 5 c45 -14 109 -58 147 -102 79 -89 97
-257 38 -364 -33 -60 -84 -110 -147 -144 -37 -20 -58 -23 -143 -23 -92 0 -104
2 -154 30 -100 55 -163 154 -169 266 -14 237 201 406 428 337z m-1961 -807
c11 -7 11 -17 1 -60 -11 -47 -10 -55 11 -98 13 -26 37 -56 52 -67 28 -21 40
-22 147 -14 31 3 35 0 38 -24 3 -21 -3 -30 -27 -42 -37 -20 -131 -21 -174 -2
-74 31 -126 115 -127 204 0 85 35 131 79 103z"/>
<path d="M7721 4106 c11 -15 11 -20 2 -23 -7 -3 -13 -10 -13 -16 0 -6 8 -4 17
6 16 16 16 18 -2 35 -18 16 -18 16 -4 -2z"/>
<path d="M7725 4049 c-4 -6 -5 -12 -2 -15 2 -3 7 2 10 11 7 17 1 20 -8 4z"/>
<path d="M7751 4041 c-10 -6 -10 -10 -1 -16 6 -4 9 -14 6 -22 -3 -8 -2 -11 3
-8 5 3 11 -1 13 -8 2 -9 7 -8 20 5 15 15 15 18 0 30 -14 11 -15 10 -9 -7 7
-19 7 -19 -8 -1 -8 10 -12 23 -9 27 7 11 3 11 -15 0z"/>
<path d="M2355 4190 c-3 -5 -2 -10 4 -10 5 0 13 5 16 10 3 6 2 10 -4 10 -5 0
-13 -4 -16 -10z"/>
<path d="M7680 3796 c0 -4 5 -17 11 -29 10 -21 9 -21 -10 2 -12 13 -21 19 -21
14 0 -23 36 -42 64 -35 25 7 26 9 12 21 -13 11 -16 11 -16 1 0 -7 -9 -3 -20
10 -11 13 -20 20 -20 16z"/>
<path d="M6015 2450 c3 -5 11 -10 16 -10 6 0 7 5 4 10 -3 6 -11 10 -16 10 -6
0 -7 -4 -4 -10z"/>
</g>
</svg>
